<?xml version="1.0" encoding="utf-8"?>
<!-- Generator: Adobe Illustrator 16.0.0, SVG Export Plug-In . SVG Version: 6.00 Build 0)  -->
<!DOCTYPE svg PUBLIC "-//W3C//DTD SVG 1.1//EN" "http://www.w3.org/Graphics/SVG/1.1/DTD/svg11.dtd">
<svg version="1.1" id="Layer_1" xmlns="http://www.w3.org/2000/svg" xmlns:xlink="http://www.w3.org/1999/xlink" x="0px" y="0px"
	 width="1024px" height="834.954px" viewBox="0 0 1024 834.954" enable-background="new 0 0 1024 834.954" xml:space="preserve">
<g>
	<path fill="#CC33FF" d="M960.985,0H63.016C28.27,0,0,28.269,0,63.016V771.94c0,34.745,28.27,63.014,63.016,63.014h897.97
		c34.747,0,63.015-28.269,63.015-63.014V63.016C1024,28.269,995.732,0,960.985,0z M984.617,771.94
		c0,13.048-10.58,23.629-23.632,23.629H63.016c-13.051,0-23.631-10.581-23.631-23.629V159.641h945.232V771.94z M984.617,120.257
		H39.385V63.016c0-13.051,10.58-23.63,23.631-23.63h897.97c13.052,0,23.632,10.58,23.632,23.63V120.257z"/>
	<circle fill="#CC33FF" cx="86.646" cy="81.932" r="14.441"/>
	<circle fill="#CC33FF" cx="133.141" cy="81.932" r="14.441"/>
	<circle fill="#CC33FF" cx="179.635" cy="81.932" r="14.441"/>
	<path fill="#CC33FF" d="M786.313,623.381l-19.961-23.468c-1.06-1.145-3.651-2.733-3.651-2.733l-449.485-259.51
		c-0.016-13.593-7.065-26.81-19.685-34.095c-18.835-10.876-42.919-4.425-53.791,14.411c-10.875,18.836-4.421,42.919,14.412,53.794
		c12.619,7.286,27.59,6.783,39.371-0.001l449.486,259.51c0,0,2.598,1.383,4.067,1.707l30.562,5.489
		c4.478,0.991,8.42,0.104,10.711-3.864c0.005-0.007,0.006-0.013,0.011-0.018C790.648,630.621,789.429,626.753,786.313,623.381z"/>
	<path fill="#CC33FF" d="M784.262,317.985c-10.873-18.836-34.957-25.287-53.791-14.411c-12.62,7.285-19.669,20.502-19.685,34.096
		L261.301,597.18c0,0-2.593,1.589-3.652,2.733l-19.961,23.468c-3.115,3.372-4.335,7.24-2.047,11.222
		c0.004,0.005,0.006,0.011,0.01,0.018c2.291,3.969,6.234,4.855,10.711,3.864l30.562-5.489c1.471-0.324,4.068-1.707,4.068-1.707
		l449.486-259.51c11.781,6.784,26.752,7.287,39.371,0.001C788.684,360.905,795.137,336.821,784.262,317.985z"/>
</g>
</svg>
