<?xml version="1.0" encoding="utf-8"?>
<!-- Generator: Adobe Illustrator 16.0.0, SVG Export Plug-In . SVG Version: 6.00 Build 0)  -->
<!DOCTYPE svg PUBLIC "-//W3C//DTD SVG 1.1//EN" "http://www.w3.org/Graphics/SVG/1.1/DTD/svg11.dtd">
<svg version="1.1" id="Layer_1" xmlns="http://www.w3.org/2000/svg" xmlns:xlink="http://www.w3.org/1999/xlink" x="0px" y="0px"
	 width="1729.129px" height="177.607px" viewBox="0 0 1729.129 177.607" enable-background="new 0 0 1729.129 177.607"
	 xml:space="preserve">
<path fill="#96B4C9" d="M1666.097,74.807c-19.145-9.476-40.845-20.215-82.46-20.215c-41.856,0-63.181,10.841-81.994,20.405
	c-16.461,8.368-30.677,15.595-61.077,15.595c-30.531,0-45.082-7.275-61.931-15.7c-19.027-9.516-40.595-20.3-82.069-20.3
	c-41.377,0-62.724,10.748-81.556,20.229c-16.807,8.462-31.319,15.771-62.444,15.771c-31.279,0-46.005-7.362-63.057-15.889
	c-18.854-9.427-40.224-20.111-80.943-20.111c-40.721,0-62.091,10.686-80.944,20.111c-17.052,8.526-31.776,15.889-63.056,15.889
	c-31.136,0-45.916-7.314-63.032-15.785c-19.146-9.476-40.845-20.215-82.46-20.215c-41.857,0-63.181,10.841-81.994,20.405
	C620.617,83.366,606.401,90.593,576,90.593c-30.531,0-45.082-7.275-61.93-15.7c-19.028-9.516-40.596-20.3-82.07-20.3
	c-41.377,0-62.722,10.748-81.554,20.229C333.639,83.285,319.125,90.593,288,90.593c-31.279,0-46.004-7.362-63.056-15.889
	C206.09,65.277,184.721,54.593,144,54.593S81.91,65.277,63.056,74.704C46.004,83.23,31.279,90.593,0,90.593v40
	c40.721,0,62.09-10.685,80.944-20.11c17.051-8.526,31.777-15.89,63.056-15.89s46.004,7.363,63.056,15.89
	c18.854,9.427,40.223,20.11,80.944,20.11c40.627,0,61.775-10.647,80.435-20.043c17.006-8.562,31.69-15.957,63.565-15.957
	c32.032,0,46.93,7.45,64.18,16.076c18.678,9.339,39.846,19.924,79.82,19.924c39.985,0,60.821-10.593,79.205-19.938
	c16.953-8.618,31.594-16.062,63.867-16.062c32.259,0,47.301,7.444,64.719,16.064c18.881,9.345,40.282,19.936,80.773,19.936
	c40.721,0,62.09-10.685,80.943-20.11c17.053-8.526,31.776-15.89,63.057-15.89c31.279,0,46.004,7.363,63.056,15.89
	c18.854,9.427,40.224,20.11,80.944,20.11c40.627,0,61.774-10.647,80.435-20.043c17.005-8.562,31.69-15.957,63.565-15.957
	c32.031,0,46.93,7.45,64.18,16.076c18.677,9.339,39.845,19.924,79.82,19.924c39.984,0,60.82-10.593,79.204-19.938
	c16.953-8.618,31.595-16.062,63.867-16.062c32.259,0,47.301,7.444,64.719,16.064c18.882,9.345,40.282,19.936,80.773,19.936v-40
	C1697.994,90.593,1683.213,83.277,1666.097,74.807z"/>
</svg>
